<svg width="20" height="21" viewBox="0 0 20 21" fill="none" xmlns="http://www.w3.org/2000/svg">
<path d="M11.666 2.38037C11.666 2.38037 13.4993 2.54704 15.8327 4.88037C18.166 7.2137 18.3327 9.04704 18.3327 9.04704" stroke="#303473" stroke-linecap="round"/>
<path d="M11.8398 5.32666C11.8398 5.32666 12.6648 5.56237 13.9023 6.7998C15.1397 8.03724 15.3754 8.8622 15.3754 8.8622" stroke="#303473" stroke-linecap="round"/>
<path d="M8.36532 5.14417L8.90615 6.11328C9.39424 6.98785 9.19832 8.13513 8.42957 8.90386C8.42957 8.90386 7.49722 9.83636 9.18774 11.5269C10.8777 13.2169 11.8108 12.2851 11.8108 12.2851C12.5796 11.5164 13.7268 11.3204 14.6014 11.8085L15.5705 12.3494C16.8912 13.0864 17.0471 14.9384 15.8863 16.0992C15.1888 16.7967 14.3343 17.3394 13.3897 17.3752C11.7997 17.4355 9.09924 17.0331 6.3904 14.3243C3.68159 11.6154 3.27916 8.91505 3.33944 7.32494C3.37525 6.38036 3.91799 5.52589 4.61549 4.82839C5.77629 3.6676 7.62829 3.82356 8.36532 5.14417Z" stroke="#303473" stroke-linecap="round"/>
</svg>
