<svg width="20" height="20" viewBox="0 0 20 20" fill="none" xmlns="http://www.w3.org/2000/svg">
<path d="M13.3327 12.5C13.3327 14.3383 11.8377 15.8333 9.99935 15.8333C8.45018 15.8333 7.15685 14.7667 6.78435 13.3333H8.33268C8.79352 13.3333 9.16602 12.96 9.16602 12.5C9.16602 12.04 8.79352 11.6667 8.33268 11.6667H6.78435C7.15685 10.2333 8.45018 9.16667 9.99935 9.16667C11.8377 9.16667 13.3327 10.6617 13.3327 12.5ZM18.3327 4.16667V15.8333C18.3327 18.1308 16.4635 20 14.166 20H5.83268C3.53518 20 1.66602 18.1308 1.66602 15.8333V4.16667C1.66602 1.86917 3.53518 0 5.83268 0H14.166C16.4635 0 18.3327 1.86917 18.3327 4.16667ZM8.33268 3.75C8.33268 4.44 8.89268 5 9.58268 5C10.2727 5 10.8327 4.44 10.8327 3.75C10.8327 3.06 10.2727 2.5 9.58268 2.5C8.89268 2.5 8.33268 3.06 8.33268 3.75ZM5.41602 5C6.10602 5 6.66602 4.44 6.66602 3.75C6.66602 3.06 6.10602 2.5 5.41602 2.5C4.72602 2.5 4.16602 3.06 4.16602 3.75C4.16602 4.44 4.72602 5 5.41602 5ZM14.9993 12.5C14.9993 9.7425 12.7568 7.5 9.99935 7.5C7.24185 7.5 4.99935 9.7425 4.99935 12.5C4.99935 15.2575 7.24185 17.5 9.99935 17.5C12.7568 17.5 14.9993 15.2575 14.9993 12.5Z" fill="#FF6C38"/>
</svg>
