<svg width="26" height="26" viewBox="0 0 26 26" fill="none" xmlns="http://www.w3.org/2000/svg">
<path d="M21.6673 11.6999V12.9999C21.6673 17.0854 21.6673 19.1282 20.3981 20.3974C19.1289 21.6666 17.0861 21.6666 13.0007 21.6666C8.91514 21.6666 6.87239 21.6666 5.60319 20.3974C4.33398 19.1282 4.33398 17.0854 4.33398 12.9999C4.33398 8.91441 4.33398 6.87166 5.60319 5.60246C6.87239 4.33325 8.91514 4.33325 13.0007 4.33325H14.3007" stroke="#303473" stroke-width="1.5" stroke-linecap="round"/>
<path d="M16.7 5.68438L17.3026 5.08191C18.3008 4.0837 19.9192 4.0837 20.9174 5.08191C21.9155 6.08012 21.9155 7.69853 20.9174 8.69674L20.3149 9.2992M16.7 5.68438C16.7 5.68438 16.7753 6.96463 17.905 8.09426C19.0346 9.2239 20.3149 9.2992 20.3149 9.2992M16.7 5.68438L11.1613 11.2232C10.7861 11.5983 10.5986 11.7859 10.4372 11.9928C10.2469 12.2367 10.0838 12.5007 9.95064 12.78C9.83779 13.0168 9.75391 13.2684 9.58613 13.7718L9.04898 15.3832M20.3149 9.2992L14.7761 14.838C14.401 15.2131 14.2134 15.4007 14.0065 15.5621C13.7626 15.7524 13.4986 15.9155 13.2193 16.0487C12.9825 16.1615 12.7308 16.2453 12.2275 16.4131L10.616 16.9503M9.04898 15.3832L8.70141 16.4259C8.61885 16.6737 8.68331 16.9467 8.86793 17.1314C9.05254 17.316 9.32563 17.3804 9.57332 17.2979L10.616 16.9503M9.04898 15.3832L10.616 16.9503" stroke="#303473" stroke-width="1.5"/>
</svg>
