<svg width="26" height="26" viewBox="0 0 26 26" fill="none" xmlns="http://www.w3.org/2000/svg">
<g clip-path="url(#clip0_2222_11463)">
<path d="M25.034 0H1.06641C0.505432 0 0.0507812 0.454651 0.0507812 1.01563C0.0507812 3.8439 1.26318 6.54404 3.37715 8.42314L7.82508 12.3765C8.59632 13.0621 9.03867 14.0472 9.03867 15.0793V24.9832C9.03867 25.7925 9.94321 26.2777 10.6174 25.828L16.6094 21.8336C16.8919 21.6451 17.0617 21.3281 17.0617 20.9885V15.0793C17.0617 14.0472 17.5041 13.0621 18.2753 12.3765L22.723 8.42314C24.837 6.54404 26.0494 3.8439 26.0494 1.01563C26.0494 0.454651 25.5947 0 25.034 0ZM21.3736 6.90486L16.9258 10.8585C15.7214 11.9292 15.0305 13.4675 15.0305 15.0791V20.445L11.0697 23.0854V15.0793C11.0697 13.4675 10.3788 11.9292 9.17435 10.8585L4.72662 6.90506C3.30118 5.63771 2.39128 3.90123 2.14769 2.03105H23.9525C23.7089 3.90123 22.7992 5.63771 21.3736 6.90486Z" fill="#303473"/>
</g>
<defs>
<clipPath id="clip0_2222_11463">
<rect width="26" height="26" fill="white"/>
</clipPath>
</defs>
</svg>
