<svg width="28" height="32" viewBox="0 0 28 32" fill="none" xmlns="http://www.w3.org/2000/svg">
<path fill-rule="evenodd" clip-rule="evenodd" d="M14.0004 0.615234C8.12396 0.615234 3.36012 5.58095 3.36012 11.7065V12.7141C3.36012 13.7115 3.0769 14.6866 2.54614 15.5165L0.969175 17.9821C-0.861093 20.8439 0.536163 24.7337 3.71946 25.6387C4.75688 25.9336 5.80305 26.1831 6.85529 26.3871L6.85789 26.3944C7.91368 29.3309 10.7355 31.3845 14.0004 31.3845C17.2652 31.3845 20.087 29.3309 21.1428 26.3944L21.1454 26.3871C22.1977 26.1831 23.244 25.9336 24.2814 25.6387C27.4647 24.7337 28.862 20.8439 27.0317 17.9821L25.4548 15.5165C24.924 14.6866 24.6408 13.7115 24.6408 12.7141V11.7065C24.6408 5.58095 19.8769 0.615234 14.0004 0.615234ZM18.6361 26.7862C15.5566 27.1697 12.4441 27.1697 9.36463 26.7862C10.3407 28.2481 12.0385 29.2378 14.0004 29.2378C15.9622 29.2378 17.66 28.2481 18.6361 26.7862ZM5.41954 11.7065C5.41954 6.76653 9.26135 2.76192 14.0004 2.76192C18.7396 2.76192 22.5814 6.76653 22.5814 11.7065V12.7141C22.5814 14.1353 22.9849 15.5247 23.7412 16.7072L25.3182 19.1729C26.3687 20.8155 25.5667 23.0482 23.7396 23.5676C17.3633 25.3803 10.6376 25.3803 4.26133 23.5676C2.43417 23.0482 1.63217 20.8155 2.68271 19.1729L4.25968 16.7072C5.01597 15.5247 5.41954 14.1353 5.41954 12.7141V11.7065Z" fill="#202020"/>
</svg>
