<svg width="26" height="26" viewBox="0 0 26 26" fill="none" xmlns="http://www.w3.org/2000/svg">
<path d="M3.54715 16.5703C2.62639 15.374 2.16602 14.7759 2.16602 12.9999C2.16602 11.2239 2.62639 10.6258 3.54715 9.42961C5.38564 7.04111 8.46897 4.33325 12.9993 4.33325C17.5297 4.33325 20.613 7.04111 22.4515 9.42961C23.3723 10.6258 23.8327 11.2239 23.8327 12.9999C23.8327 14.7759 23.3723 15.374 22.4515 16.5703C20.613 18.9587 17.5297 21.6666 12.9993 21.6666C8.46897 21.6666 5.38564 18.9587 3.54715 16.5703Z" stroke="#303473" stroke-width="1.5"/>
<path d="M16.25 13C16.25 14.795 14.795 16.25 13 16.25C11.205 16.25 9.75 14.795 9.75 13C9.75 11.205 11.205 9.75 13 9.75C14.795 9.75 16.25 11.205 16.25 13Z" stroke="#303473" stroke-width="1.5"/>
</svg>
