<svg width="269" height="87" viewBox="0 0 269 87" fill="none" xmlns="http://www.w3.org/2000/svg">
<path d="M108.346 46.8338V52.3336C106.798 51.1521 104.903 50.5614 102.663 50.5614C100.748 50.5614 99.261 50.9484 98.2018 51.7225C97.1425 52.4558 96.6129 53.515 96.6129 54.9001C96.6129 57.5889 98.6092 58.9333 102.602 58.9333H110.668V47.2615C110.668 42.3321 108.264 39.8674 103.457 39.8674H93.6797V34.7343H103.763C107.714 34.7343 110.749 35.712 112.868 37.6675C114.986 39.623 116.045 42.434 116.045 46.1005V64.0664H102.418C98.9554 64.0664 96.2055 63.2924 94.1686 61.7443C92.1316 60.1962 91.1132 57.9352 91.1132 54.9612C91.1132 51.9873 92.1928 49.7263 94.3519 48.1782C96.5111 46.6301 99.2202 45.856 102.479 45.856C104.313 45.856 106.268 46.182 108.346 46.8338ZM122.763 52.4558V21.2904H128.263V52.4558C128.263 53.9224 128.426 55.1242 128.752 56.0612C129.118 56.9574 129.668 57.6093 130.402 58.0167C131.135 58.3833 131.848 58.6277 132.54 58.75C133.233 58.8722 134.15 58.9333 135.29 58.9333V64.0664C130.728 64.0664 127.489 63.1905 125.574 61.4387C123.7 59.687 122.763 56.6926 122.763 52.4558ZM139.234 52.4558V21.2904H144.734V52.4558C144.734 53.9224 144.897 55.1242 145.222 56.0612C145.589 56.9574 146.139 57.6093 146.872 58.0167C147.606 58.3833 148.319 58.6277 149.011 58.75C149.704 58.8722 150.62 58.9333 151.761 58.9333V64.0664C147.198 64.0664 143.96 63.1905 142.045 61.4387C140.171 59.687 139.234 56.6926 139.234 52.4558ZM177.887 21.2904V26.668H167.071C162.956 26.668 160.899 28.3383 160.899 31.6789C160.899 33.4714 161.795 34.9991 163.587 36.262C165.421 37.4842 167.885 38.6656 170.982 39.8063C172.367 40.3359 173.548 40.8859 174.526 41.4562C175.504 41.9858 176.481 42.6988 177.459 43.595C178.437 44.4913 179.17 45.6524 179.659 47.0782C180.148 48.4633 180.392 50.0725 180.392 51.9058C180.392 53.9428 179.965 55.776 179.109 57.4056C178.254 58.9944 177.154 60.2573 175.809 61.1943C174.465 62.0906 173.08 62.7831 171.654 63.272C170.269 63.7201 168.904 63.9646 167.56 64.0053C166.989 64.046 166.174 64.0664 165.115 64.0664H155.582V58.6889H164.932C167.702 58.6889 169.963 58.1185 171.715 56.9778C173.467 55.7964 174.343 54.0853 174.343 51.8447C174.343 50.7447 174.098 49.7874 173.609 48.9726C173.12 48.1171 172.407 47.3838 171.47 46.7727C170.574 46.1616 169.637 45.632 168.659 45.1839C167.722 44.7357 166.582 44.2672 165.237 43.7784C164.871 43.6561 164.586 43.5543 164.382 43.4728C157.986 41.0285 154.788 37.036 154.788 31.4955C154.788 28.0734 155.888 25.5273 158.088 23.857C160.288 22.1459 163.16 21.2904 166.704 21.2904H177.887ZM200.858 34.1232C207.784 34.4084 211.246 37.2805 211.246 42.7395C211.246 49.5429 206.786 52.9446 197.864 52.9446H195.358V48.2393H198.291C201.021 48.2393 202.915 47.8319 203.975 47.0171C205.034 46.1616 205.563 44.7561 205.563 42.8006C205.563 41.5377 205.095 40.6007 204.158 39.9896C203.221 39.3378 202.019 39.0119 200.552 39.0119C197.66 39.0119 195.379 40.0304 193.708 42.0673C192.079 44.1043 191.264 46.5486 191.264 49.4003C191.264 52.415 192.14 54.8594 193.892 56.7334C195.684 58.6074 198.006 59.5444 200.858 59.5444C203.425 59.5444 205.523 58.9129 207.152 57.65L210.819 61.2554C208.008 63.5368 204.687 64.6775 200.858 64.6775C196.214 64.6775 192.506 63.3127 189.736 60.5832C186.966 57.8537 185.581 54.3298 185.581 50.0114C185.581 45.2042 186.946 41.3136 189.675 38.3397C192.405 35.3657 196.132 33.9602 200.858 34.1232ZM216.434 64.0664V47.3838C216.434 42.6988 217.309 39.46 219.061 37.6675C219.917 36.7712 220.956 36.099 222.178 35.6509C223.4 35.2028 224.459 34.938 225.355 34.8565C226.292 34.775 227.555 34.7343 229.144 34.7343H234.522V39.8674H228.044C227.229 39.8674 226.598 39.8878 226.15 39.9285C225.702 39.9693 225.172 40.1118 224.561 40.3563C223.95 40.6007 223.42 40.9877 222.972 41.5173C222.198 42.4951 221.811 44.4506 221.811 47.3838V64.0664H216.434Z" fill="white"/>
<path d="M240.954 33.4111C241.115 33.546 252.503 43.5907 256.075 60.1994L268.576 34.7785H261.122L254.77 45.9624C254.77 45.9624 248.634 36.3876 240.954 33.4111Z" fill="white"/>
<path d="M255.695 60.5762L253.947 63.7887L248.74 62.4337C244.633 36.1262 225 24.0664 225 24.0664C251.187 34.4525 255.695 60.5762 255.695 60.5762Z" fill="#A3B0F0"/>
<g clip-path="url(#clip0_2344_14929)">
<path d="M164.992 66.8439C152.337 74.1461 135.264 82.444 114.962 82.444C110.878 82.4428 106.801 82.1008 102.774 81.4216C92.4369 79.6741 84.3686 74.5444 77.207 68.2972C73.3126 65.3876 65.0183 57.2532 61.2101 53.3153C55.5617 47.2049 50.2105 41.4094 43.593 38.5949V50.8812L47.2912 52.2989V54.4031H34.0442V52.2989L37.7424 50.8812V36.9841C35.7718 36.71 33.7752 36.6771 31.7967 36.886C19.6615 38.0748 14.5542 47.187 14.9436 55.155C15.3301 63.0338 21.2431 71.5189 33.3129 71.5189C39.7639 71.5189 45.891 66.3714 49.1046 62.9001L53.5639 69.492C50.1065 72.6483 41.3425 75.0259 34.0144 75.0259C19.4772 74.2739 11.8667 63.7322 11.6467 54.305C11.4267 44.9283 17.4795 34.8502 31.4875 33.4682C33.5628 33.2606 35.6531 33.2497 37.7305 33.4355V20.2784L34.0442 18.8548V16.7477H47.2853V18.8548L43.5989 20.2755V33.1829L60.1993 19.4909L58.1183 18.9559V16.7536H70.3962V18.9618L64.9796 20.3409L46.4677 35.5576C55.3863 39.1448 62.8184 46.664 70.3338 54.2664C73.7109 57.6782 77.4418 61.4349 81.0806 64.6119C86.5204 54.9875 88.0808 43.6503 85.443 32.9148C82.8053 22.1793 76.1684 12.8551 66.8873 6.84565C57.6061 0.836191 46.3806 -1.40531 35.5024 0.578754C24.6242 2.56281 14.9137 8.62282 8.35318 17.5216C1.79267 26.4204 -1.12308 37.4869 0.201175 48.462C1.52543 59.4371 6.98982 69.493 15.4788 76.577C23.9678 83.6609 34.8413 87.2387 45.8794 86.5798C56.9174 85.9209 67.2878 81.0751 74.8733 73.0316C83.447 79.1362 92.3715 82.8898 102.197 84.5482C105.921 85.1669 109.691 85.475 113.467 85.4695C134.827 85.4695 154.406 75.9591 164.992 69.7179V66.8439Z" fill="white"/>
</g>
<defs>
<clipPath id="clip0_2344_14929">
<rect width="164.993" height="86.652" fill="white"/>
</clipPath>
</defs>
</svg>
