<svg width="20" height="20" viewBox="0 0 20 20" fill="none" xmlns="http://www.w3.org/2000/svg">
<path d="M6.39844 9.09961H6.40654M9.99034 9.09961H9.99844M13.5903 9.09961H13.5984" stroke="#303473" stroke-width="2" stroke-linecap="round" stroke-linejoin="round"/>
<path d="M10.978 18.4489L11.6234 18.8309L10.978 18.4489ZM11.4659 17.6246L10.8205 17.2426L11.4659 17.6246ZM8.53409 17.6246L7.88867 18.0067H7.88867L8.53409 17.6246ZM9.02197 18.4489L9.66739 18.0669L9.02197 18.4489ZM1.34254 13.5221L2.03545 13.2351L2.03545 13.2351L1.34254 13.5221ZM6.21062 16.2923L6.1977 17.0422L6.21062 16.2923ZM3.77792 15.9575L3.49091 16.6504H3.49091L3.77792 15.9575ZM18.6575 13.5221L19.3504 13.8091L18.6575 13.5221ZM13.7893 16.2923L13.7764 15.5424L13.7893 16.2923ZM16.2221 15.9575L16.5091 16.6504L16.5091 16.6504L16.2221 15.9575ZM16.8512 1.66312L16.4594 2.3026L16.8512 1.66312ZM18.3369 3.14876L18.9764 2.75688V2.75688L18.3369 3.14876ZM3.14876 1.66312L2.75688 1.02364V1.02364L3.14876 1.66312ZM1.66312 3.14876L1.02364 2.75688L1.02364 2.75688L1.66312 3.14876ZM7.66251 16.4889L8.03959 15.8405L8.03958 15.8405L7.66251 16.4889ZM11.6234 18.8309L12.1113 18.0067L10.8205 17.2426L10.3326 18.0669L11.6234 18.8309ZM7.88867 18.0067L8.37656 18.8309L9.66739 18.0669L9.1795 17.2426L7.88867 18.0067ZM10.3326 18.0669C10.1881 18.3109 9.81183 18.3109 9.66739 18.0669L8.37656 18.8309C9.10182 20.0563 10.8981 20.0563 11.6234 18.8309L10.3326 18.0669ZM8.65 1.75H11.35V0.25H8.65V1.75ZM18.25 8.65V9.55H19.75V8.65H18.25ZM1.75 9.55V8.65H0.25V9.55H1.75ZM0.25 9.55C0.25 10.5881 0.249594 11.4042 0.294557 12.0633C0.339981 12.729 0.434199 13.289 0.649633 13.8091L2.03545 13.2351C1.90834 12.9282 1.83129 12.5505 1.79108 11.9611C1.75041 11.365 1.75 10.6086 1.75 9.55H0.25ZM6.22354 15.5424C5.09364 15.5229 4.51454 15.4508 4.06494 15.2645L3.49091 16.6504C4.22986 16.9564 5.06795 17.0227 6.1977 17.0422L6.22354 15.5424ZM0.649632 13.8091C1.18248 15.0955 2.20451 16.1175 3.49091 16.6504L4.06494 15.2645C3.14608 14.8839 2.41605 14.1539 2.03545 13.2351L0.649632 13.8091ZM18.25 9.55C18.25 10.6086 18.2496 11.365 18.2089 11.9611C18.1687 12.5505 18.0917 12.9282 17.9645 13.2351L19.3504 13.8091C19.5658 13.289 19.66 12.729 19.7054 12.0633C19.7504 11.4042 19.75 10.5881 19.75 9.55H18.25ZM13.8023 17.0422C14.932 17.0227 15.7701 16.9564 16.5091 16.6504L15.9351 15.2645C15.4855 15.4508 14.9063 15.5229 13.7764 15.5424L13.8023 17.0422ZM17.9645 13.2351C17.5839 14.1539 16.8539 14.8839 15.9351 15.2645L16.5091 16.6504C17.7955 16.1175 18.8175 15.0955 19.3504 13.8091L17.9645 13.2351ZM11.35 1.75C12.8376 1.75 13.9006 1.75079 14.7286 1.82952C15.5455 1.90719 16.056 2.05539 16.4594 2.3026L17.2431 1.02364C16.5644 0.607729 15.7973 0.424367 14.8706 0.336257C13.9551 0.249209 12.8085 0.25 11.35 0.25V1.75ZM19.75 8.65C19.75 7.19148 19.7508 6.04492 19.6637 5.1294C19.5756 4.20271 19.3923 3.43559 18.9764 2.75688L17.6974 3.54063C17.9446 3.94404 18.0928 4.45449 18.1705 5.27138C18.2492 6.09943 18.25 7.16243 18.25 8.65H19.75ZM16.4594 2.3026C16.964 2.61181 17.3882 3.03605 17.6974 3.54063L18.9764 2.75688C18.5435 2.05047 17.9495 1.45653 17.2431 1.02364L16.4594 2.3026ZM8.65 0.25C7.19148 0.25 6.04492 0.249209 5.1294 0.336257C4.20271 0.424367 3.43559 0.607729 2.75688 1.02364L3.54063 2.3026C3.94404 2.05539 4.45449 1.90719 5.27138 1.82952C6.09943 1.75079 7.16243 1.75 8.65 1.75V0.25ZM1.75 8.65C1.75 7.16243 1.75079 6.09943 1.82952 5.27138C1.90719 4.45449 2.05539 3.94404 2.3026 3.54063L1.02364 2.75688C0.607729 3.43559 0.424367 4.20271 0.336257 5.1294C0.249209 6.04492 0.25 7.19148 0.25 8.65H1.75ZM2.75688 1.02364C2.05047 1.45653 1.45653 2.05047 1.02364 2.75688L2.3026 3.54063C2.61181 3.03605 3.03605 2.61181 3.54063 2.3026L2.75688 1.02364ZM9.1795 17.2426C8.99749 16.9351 8.83503 16.6591 8.67646 16.4415C8.50867 16.2113 8.31299 15.9996 8.03959 15.8405L7.28544 17.1372C7.31596 17.1549 7.36686 17.1914 7.46426 17.325C7.57089 17.4713 7.69225 17.6748 7.88867 18.0067L9.1795 17.2426ZM6.1977 17.0422C6.59428 17.049 6.84051 17.054 7.02704 17.0747C7.19966 17.0938 7.25739 17.1209 7.28544 17.1372L8.03958 15.8405C7.76371 15.6801 7.47814 15.6155 7.19213 15.5838C6.92002 15.5537 6.59227 15.5488 6.22354 15.5424L6.1977 17.0422ZM12.1113 18.0067C12.3077 17.6748 12.4291 17.4713 12.5357 17.325C12.6331 17.1914 12.684 17.1549 12.7145 17.1372L11.9604 15.8405C11.687 15.9996 11.4913 16.2113 11.3235 16.4415C11.1649 16.6591 11.0025 16.9351 10.8205 17.2426L12.1113 18.0067ZM13.7764 15.5424C13.4077 15.5488 13.0799 15.5537 12.8078 15.5838C12.5218 15.6155 12.2363 15.6801 11.9604 15.8405L12.7145 17.1372C12.7426 17.1209 12.8003 17.0938 12.9729 17.0747C13.1595 17.054 13.4057 17.049 13.8023 17.0422L13.7764 15.5424Z" fill="#303473"/>
</svg>
