<svg width="24" height="24" viewBox="0 0 24 24" fill="none" xmlns="http://www.w3.org/2000/svg">
<path d="M16 15C16 17.206 14.206 19 12 19C10.141 19 8.589 17.72 8.142 16H10C10.553 16 11 15.552 11 15C11 14.448 10.553 14 10 14H8.142C8.589 12.28 10.141 11 12 11C14.206 11 16 12.794 16 15ZM22 5V19C22 21.757 19.757 24 17 24H7C4.243 24 2 21.757 2 19V5C2 2.243 4.243 0 7 0H17C19.757 0 22 2.243 22 5ZM10 4.5C10 5.328 10.672 6 11.5 6C12.328 6 13 5.328 13 4.5C13 3.672 12.328 3 11.5 3C10.672 3 10 3.672 10 4.5ZM6.5 6C7.328 6 8 5.328 8 4.5C8 3.672 7.328 3 6.5 3C5.672 3 5 3.672 5 4.5C5 5.328 5.672 6 6.5 6ZM18 15C18 11.691 15.309 9 12 9C8.691 9 6 11.691 6 15C6 18.309 8.691 21 12 21C15.309 21 18 18.309 18 15Z" fill="#FF6C38"/>
</svg>
