<svg width="24" height="24" viewBox="0 0 24 24" fill="none" xmlns="http://www.w3.org/2000/svg">
<g clip-path="url(#clip0_1681_10045)">
<path d="M10.5403 15.49C11.1363 16.085 11.1363 17.051 10.5403 17.647L5.03225 23.155C3.84425 24.343 1.89425 24.305 0.754254 23.04C-0.313746 21.854 -0.146746 19.997 0.981254 18.869L6.37125 13.479C6.96625 12.884 7.93225 12.883 8.52725 13.479L10.5393 15.491L10.5403 15.49ZM15.9523 11.003C17.2153 11.005 18.4963 11.504 19.4393 12.448C20.0003 13 20.7523 12.894 21.0003 12.723C22.8193 11.464 24.0183 9.38002 24.0183 7.00002C24.0183 6.58702 23.9813 6.18302 23.9123 5.79002C23.7763 5.02202 22.8053 4.74902 22.2533 5.30002L20.6063 6.94702C19.4603 8.09302 17.9533 8.26902 16.9413 7.44102C15.7773 6.48902 15.7133 4.76902 16.7503 3.73202L18.7153 1.76702C19.2663 1.21502 18.9963 0.241023 18.2283 0.105023C17.8353 0.0350234 17.4313 -0.000976562 17.0183 -0.000976562C14.0753 -0.000976562 11.5633 1.81702 10.5293 4.39002C10.3223 4.90402 10.4433 5.49502 10.8353 5.88602L15.9523 11.002V11.003ZM18.0253 13.862C17.2643 13.101 16.1943 12.855 15.2213 13.101L7.99925 5.88002V3.99902C7.99925 3.24702 7.59725 2.55102 6.94525 2.17502L3.53925 0.211023C2.92125 -0.145977 2.14025 -0.0429766 1.63525 0.462023L0.463254 1.63402C-0.0427459 2.13902 -0.145746 2.92102 0.211254 3.53902L2.17625 6.94602C2.55225 7.59802 3.24725 7.99902 3.99925 7.99902H5.87725L13.1013 15.222C12.8563 16.194 13.1013 17.264 13.8623 18.025L18.9193 23.028C20.0663 24.175 22.0473 24.284 23.1933 23.136C24.3413 21.986 24.1963 20.269 23.1923 18.974L18.0253 13.862Z" fill="#F6A325"/>
</g>
<defs>
<clipPath id="clip0_1681_10045">
<rect width="24" height="24" fill="white"/>
</clipPath>
</defs>
</svg>
