<svg width="24" height="24" viewBox="0 0 24 24" fill="none" xmlns="http://www.w3.org/2000/svg">
<path d="M19 2H5C2.243 2 0 4.243 0 7V16C0 18.045 1.237 19.802 3 20.576V22C3 22.553 3.448 23 4 23C4.552 23 5 22.553 5 22V21H19V22C19 22.553 19.448 23 20 23C20.552 23 21 22.553 21 22V20.576C22.763 19.802 24 18.045 24 16V7C24 4.243 21.757 2 19 2ZM17 16C17 17.103 16.103 18 15 18H5C3.897 18 3 17.103 3 16V7C3 5.897 3.897 5 5 5H15C16.103 5 17 5.897 17 7V16ZM21 17C21 17.553 20.552 18 20 18C19.448 18 19 17.553 19 17V6C19 5.448 19.448 5 20 5C20.552 5 21 5.448 21 6V17ZM15 7V16H5V7H15Z" fill="#FD4141"/>
</svg>
