<svg width="24" height="24" viewBox="0 0 24 24" fill="none" xmlns="http://www.w3.org/2000/svg">
<path d="M22.6468 5.8825L19.0115 2.24714C18.0974 1.33299 16.615 1.33299 15.7009 2.24714C15.5209 2.43067 15.4291 2.66714 15.4291 2.90714C15.4291 3.14714 15.5209 3.38361 15.7009 3.56714L18.0868 5.95306C18.6444 6.51423 18.6444 7.41776 18.0868 7.97544L14.5996 11.4661L17.3915 14.2579L22.6468 8.99904C23.5081 8.13787 23.5081 6.74371 22.6468 5.8825Z" fill="#4AAF57"/>
<path d="M16.9826 14.8476L12.5425 10.404L13.8661 9.08043C14.4254 8.52112 14.4211 7.62017 13.8696 7.06863C13.312 6.51098 12.4084 6.51098 11.8543 7.06863L10.5307 8.39219L10.4284 8.28984C10.0895 7.95101 9.54247 7.95101 9.20361 8.28984L7.87652 9.61693C7.63648 9.85693 7.55887 10.2169 7.67891 10.5346L8.1942 11.8899L1.33998 18.7477C0.443472 19.6441 0.496378 21.13 1.4988 21.963C2.3741 22.6866 3.68001 22.5595 4.48472 21.7548L11.8543 14.3853L14.6496 17.1806C15.2955 17.823 16.3403 17.823 16.9826 17.1806C17.6285 16.5347 17.6285 15.4899 16.9826 14.8476ZM3.53178 20.9218C3.16825 21.2854 2.58233 21.2818 2.22237 20.9218C1.86237 20.5618 1.86237 19.9795 2.22237 19.6159C2.58233 19.2559 3.16825 19.2594 3.52825 19.6194C3.88825 19.9795 3.89178 20.5618 3.53178 20.9218Z" fill="#4AAF57"/>
<path d="M7.59766 19.6406C7.89762 19.8841 8.34233 19.8629 8.62119 19.5841C8.90004 19.3053 8.92122 18.8641 8.67766 18.5605L7.59766 19.6406Z" fill="#4AAF57"/>
<path d="M10.2703 16.9717L9.17969 18.0588L9.56086 18.4364C9.86086 18.7364 10.3479 18.7364 10.6479 18.4364C10.948 18.1364 10.948 17.6494 10.6479 17.3493L10.2703 16.9717Z" fill="#4AAF57"/>
<path d="M13.0264 16.5556L11.8546 15.3838L10.7676 16.4709L11.9393 17.6427C12.2393 17.9427 12.7264 17.9427 13.0264 17.6427C13.3088 17.3603 13.3264 16.9156 13.0793 16.6121C13.0617 16.5944 13.044 16.5732 13.0264 16.5556Z" fill="#4AAF57"/>
</svg>
