<svg width="24" height="24" viewBox="0 0 24 24" fill="none" xmlns="http://www.w3.org/2000/svg">
<g clip-path="url(#clip0_1681_10039)">
<path d="M20 3C20 1.346 18.654 0 17 0H3C1.346 0 0 1.346 0 3V5C0 6.654 1.346 8 3 8H17C18.654 8 20 6.654 20 5C21.103 5 22 5.897 22 7V8C22 9.103 21.103 10 20 10H13C10.794 10 9 11.794 9 14V14.184C7.839 14.598 7 15.698 7 17V21C7 22.654 8.346 24 10 24C11.654 24 13 22.654 13 21V17C13 15.698 12.161 14.598 11 14.184V14C11 12.897 11.897 12 13 12H20C22.206 12 24 10.206 24 8V7C24 4.794 22.206 3 20 3Z" fill="#476FFE"/>
</g>
<defs>
<clipPath id="clip0_1681_10039">
<rect width="24" height="24" fill="white"/>
</clipPath>
</defs>
</svg>
