<svg width="24" height="24" viewBox="0 0 24 24" fill="none" xmlns="http://www.w3.org/2000/svg">
<g clip-path="url(#clip0_1681_10051)">
<path d="M5.81103 7.58647L3.69022 8.20821C2.29666 8.61727 1.1406 9.59583 0.506924 10.9027C-0.116256 12.1918 -0.167113 13.6839 0.366815 15.0124C0.373957 15.0308 0.383161 15.0482 0.390351 15.0666L2.14917 14.7793C3.80694 14.3475 5.32283 13.4895 6.54623 12.2904C6.95002 11.895 7.59784 11.9019 7.99319 12.3057C8.3885 12.7095 8.38164 13.3573 7.97785 13.7527C6.47212 15.2224 4.60393 16.2671 2.56331 16.7805L1.36483 16.9789C2.05445 18.0996 2.90944 19.1098 3.90084 19.9751L6.00017 19.1959L7.4318 18.4801C8.90761 17.7384 10.1711 16.6344 11.1039 15.2712L11.6346 14.493C11.9397 14.0178 12.5723 13.8799 13.0476 14.185C13.5228 14.4902 13.6607 15.1227 13.3556 15.598C13.3455 15.6138 13.3349 15.6292 13.3239 15.6444L12.7942 16.4226C11.6658 18.0738 10.1362 19.4109 8.34905 20.3084L6.76404 21.0989L5.90201 21.418C7.97948 22.6291 10.3424 23.2645 12.7471 23.2586H13.692C13.9034 23.2584 14.1097 23.1935 14.283 23.0725C16.4487 21.6006 18.2422 19.6449 19.5217 17.3604L8.3838 6.4248C7.57114 6.90466 6.70839 7.29417 5.81103 7.58647Z" fill="#9354EA"/>
<path d="M23.6972 1.04232C23.2929 0.639539 22.6391 0.639539 22.2349 1.04232L17.3633 5.91388L17.0361 5.59383C15.2551 3.85428 12.4811 3.64759 10.4619 5.104C10.3678 5.17149 10.2748 5.22771 10.1797 5.29319L20.433 15.3594C20.7593 14.476 20.999 13.563 21.1488 12.6332C21.4061 10.9897 20.8526 9.32332 19.663 8.16046L18.845 7.35878L23.6992 2.50457C24.1014 2.09983 24.1005 1.44597 23.6972 1.04232Z" fill="#9354EA"/>
</g>
<defs>
<clipPath id="clip0_1681_10051">
<rect width="24" height="24" fill="white"/>
</clipPath>
</defs>
</svg>
