<svg width="597" height="451" viewBox="0 0 597 451" fill="none" xmlns="http://www.w3.org/2000/svg">
<g clip-path="url(#clip0_2998_13270)">
<path d="M23.9727 210.858C35.7831 200.452 48.9427 191.687 63.0956 184.798C69.0843 181.875 75.2902 179.369 81.471 176.913C83.651 176.078 84.3944 174.909 84.3944 172.62C84.3192 130.716 84.3944 88.82 84.1939 46.9158C84.1311 41.4937 83.336 36.105 81.8301 30.8958C79.0655 21.2487 72.7344 16.8052 62.6864 16.6966C54.3339 16.5797 45.9815 16.6966 37.629 16.6966C31.5401 16.6966 27.7147 13.4475 27.698 8.41936C27.6813 3.39119 31.515 0.133745 37.6457 0.133745C91.2406 0.133745 144.836 0.133745 198.43 0.133745C204.369 0.133745 208.027 3.29096 208.136 8.21055C208.244 13.2972 204.469 16.6215 198.397 16.6883C192.55 16.7468 186.704 16.5964 180.857 16.7718C172.17 17.0307 165.639 21.0399 163.217 29.4676C161.39 35.7284 160.418 42.2072 160.326 48.7283C160.068 88.6781 160.16 128.636 160.268 168.586C160.268 169.998 161.279 172.136 162.423 172.67C164.62 173.706 166.975 174.859 169.573 172.278C207.86 134.202 246.206 96.1786 284.611 58.2083C291.026 51.8438 297.399 45.4124 303.346 38.6135C306.01 35.4096 308.124 31.7854 309.601 27.8889C311.923 22.0422 309.343 18.0832 303.187 17.0307C301.692 16.7718 300.13 16.847 298.618 16.6131C296.588 16.3882 294.715 15.4113 293.368 13.8748C292.022 12.3382 291.299 10.3533 291.343 8.31078C291.362 6.2708 292.144 4.31181 293.535 2.8199C294.927 1.32798 296.827 0.411338 298.86 0.250641C301.207 0.0167721 303.588 0.133745 305.952 0.133745H427.897C435.615 0.133745 439.549 2.96519 439.499 8.44439C439.449 13.9236 435.59 17.1978 427.881 16.6298C398.789 14.4833 374.784 26.4272 353.594 44.4184C333.673 61.3238 314.822 79.4988 295.728 97.3814C264.835 126.292 234.037 155.297 203.333 184.397C202.222 185.441 201.145 186.527 199.692 187.939C203.191 190.11 206.482 192.115 209.715 194.153C235.39 210.607 256.63 231.948 276.944 254.433C308.19 289.003 341.675 321.144 380.681 347.078C409.631 366.289 440.952 379.536 475.59 383.67C486.071 384.943 496.673 384.845 507.129 383.378C530.649 379.962 545.442 363.173 548.056 339.344C550.486 317.352 540.848 300.555 525.705 286.063C513.418 274.303 498.76 266.017 484.059 257.74C455.945 241.87 427.73 226.176 400.176 209.404C383.222 199.249 369.311 184.72 359.9 167.341C338.869 128.444 347.931 59.8454 409.889 34.5375C441.286 21.6998 473.017 23.3953 504.556 34.3537C511.497 36.7676 518.079 40.2004 524.928 42.915C529.822 44.836 534.784 46.9409 539.912 47.7928C549.384 49.3798 555.707 45.2871 559.014 36.208C560.2 32.9672 560.827 29.526 561.796 25.8258H572.879V153.744H561.812C560.81 147.162 560.142 140.538 558.764 134.057C552.75 105.174 539.369 80.6013 514.404 63.9465C488.511 46.6986 460.288 41.6287 430.537 52.9713C414.4 59.1187 402.139 70.1189 396.041 86.6484C388.524 107.212 393.744 125.496 407.576 141.733C418.835 154.946 433.644 163.307 448.695 171.259C473.176 184.188 497.908 196.659 522.197 209.956C542.059 220.814 559.966 234.353 575.051 251.576C611.559 293.013 600.509 359.331 556.517 388.765C537.406 401.578 516.35 409.02 493.924 412.895C465.083 417.907 436.133 419.352 407.141 413.872C369.071 406.664 335.461 389.65 305.793 365.328C285.705 348.874 267.146 330.523 248.161 312.758C223.864 290.047 199.8 267.07 173.206 246.982C155.374 233.51 136.614 221.632 115.516 213.823C86.7498 203.165 57.5078 203.199 27.9735 209.939C26.6538 210.281 25.3007 210.549 23.9727 210.858Z" fill="white"/>
<path d="M518.807 430.528C502.699 437.122 486.018 442.219 468.976 445.754C419.304 456.095 371.578 450.941 326.149 427.655C305.076 416.847 286.057 403.015 268.676 387.095C237.663 358.747 206.867 330.115 176.014 301.633C171.152 297.148 166.191 292.788 161.272 288.369L160.219 288.845V294.04C160.219 315.615 160.027 337.189 160.361 358.764C160.406 365.695 161.312 372.594 163.059 379.302C165.473 388.164 171.921 392.399 181.092 392.666C186.655 392.808 192.226 392.666 197.797 392.666C204.404 392.666 208.079 395.631 208.162 400.918C208.246 406.206 204.445 409.329 197.964 409.329H38.031C30.9648 409.329 26.6716 405.036 27.9328 399.306C28.8349 395.214 32.034 392.75 36.8701 392.7C44.9386 392.624 53.0154 392.7 61.0922 392.7C73.5708 392.7 80.3697 387.413 82.8086 375.21C83.8298 369.883 84.3442 364.471 84.3453 359.048C84.4706 322.998 84.3455 286.941 84.4958 250.892C84.4958 247.367 83.3515 246.198 80.0606 245.387C54.0427 238.998 27.9829 239.006 1.81468 244.26C1.32188 244.36 0.829179 244.435 0.0273438 243.583C9.69113 240.159 19.238 236.484 29.027 233.36C70.0292 220.238 107.54 228.774 142.537 252.136C171.144 271.205 196.577 294.091 221.509 317.578C240.854 335.803 259.555 354.746 279.509 372.27C312.234 400.994 349.168 422.443 391.849 433.084C420.348 440.192 449.172 440.676 478.105 437.26C491.97 435.539 505.727 432.666 518.807 430.528Z" fill="white"/>
</g>
<defs>
<clipPath id="clip0_2998_13270">
<rect width="597" height="450.79" fill="white"/>
</clipPath>
</defs>
</svg>
