<svg width="45" height="45" viewBox="0 0 45 45" fill="none" xmlns="http://www.w3.org/2000/svg">
<rect width="45" height="45" rx="22.5" fill="#335AFF"/>
<path d="M18 15.75C17.59 15.75 17.25 15.41 17.25 15V12C17.25 11.59 17.59 11.25 18 11.25C18.41 11.25 18.75 11.59 18.75 12V15C18.75 15.41 18.41 15.75 18 15.75Z" fill="white"/>
<path d="M26 15.75C25.59 15.75 25.25 15.41 25.25 15V12C25.25 11.59 25.59 11.25 26 11.25C26.41 11.25 26.75 11.59 26.75 12V15C26.75 15.41 26.41 15.75 26 15.75Z" fill="white"/>
<path d="M25 21.75H17C16.59 21.75 16.25 21.41 16.25 21C16.25 20.59 16.59 20.25 17 20.25H25C25.41 20.25 25.75 20.59 25.75 21C25.75 21.41 25.41 21.75 25 21.75Z" fill="white"/>
<path d="M22 25.75H17C16.59 25.75 16.25 25.41 16.25 25C16.25 24.59 16.59 24.25 17 24.25H22C22.41 24.25 22.75 24.59 22.75 25C22.75 25.41 22.41 25.75 22 25.75Z" fill="white"/>
<path d="M25 32.75H19C13.38 32.75 12.25 30.1 12.25 25.82V19.65C12.25 14.91 13.85 12.98 17.96 12.75H26C30.15 12.98 31.75 14.91 31.75 19.65V26C31.75 26.41 31.41 26.75 31 26.75C30.59 26.75 30.25 26.41 30.25 26V19.65C30.25 15.29 28.8 14.41 25.96 14.25H18C15.2 14.41 13.75 15.29 13.75 19.65V25.82C13.75 29.65 14.48 31.25 19 31.25H25C25.41 31.25 25.75 31.59 25.75 32C25.75 32.41 25.41 32.75 25 32.75Z" fill="white"/>
<path d="M25 32.75C24.9 32.75 24.81 32.73 24.71 32.69C24.43 32.57 24.25 32.3 24.25 32V29C24.25 26.58 25.58 25.25 28 25.25H31C31.3 25.25 31.58 25.43 31.69 25.71C31.81 25.99 31.74 26.31 31.53 26.53L25.53 32.53C25.39 32.67 25.2 32.75 25 32.75ZM28 26.75C26.42 26.75 25.75 27.42 25.75 29V30.19L29.19 26.75H28Z" fill="white"/>
</svg>
