<svg width="45" height="45" viewBox="0 0 45 45" fill="none" xmlns="http://www.w3.org/2000/svg">
<rect width="45" height="45" rx="22.5" fill="#00BE82"/>
<g clip-path="url(#clip0_2976_3047)">
<path d="M11.0478 13.0576L12.5457 15.6792C12.5962 15.7678 12.6808 15.8319 12.7797 15.8567L14.1771 16.2061L18.9701 21L19.4997 20.4705L14.6317 15.6017C14.5838 15.5536 14.5237 15.5196 14.458 15.5031L13.1152 15.1662L11.8399 12.9328L12.9333 11.8392L15.1672 13.116L15.5042 14.459C15.5205 14.5249 15.5547 14.5852 15.6026 14.6331L20.4706 19.502L21 18.9723L16.2071 14.1784L15.8577 12.7815C15.8329 12.6824 15.7688 12.5977 15.6803 12.547L13.059 11.049C12.9128 10.9658 12.7289 10.9904 12.6096 11.1092L11.1119 12.6074C10.9915 12.7258 10.9653 12.9101 11.0478 13.0576Z" fill="white" stroke="white" stroke-width="0.5"/>
<path d="M26 18.4831L18.4832 26L18 25.5168L25.5169 18L26 18.4831Z" fill="white" stroke="white" stroke-width="0.5"/>
<path d="M16.8776 26.2021C16.813 26.0766 16.6969 26 16.5714 26H14.4286C14.3032 26 14.187 26.0766 14.1225 26.2021L13.051 28.2854C12.983 28.4174 12.983 28.5824 13.051 28.7146L14.1225 30.7979C14.187 30.9232 14.3032 31 14.4286 31H16.5714C16.6969 31 16.813 30.9232 16.8776 30.7979L17.949 28.7146C18.017 28.5824 18.017 28.4174 17.949 28.2854L16.8776 26.2021ZM16.3694 30.1666H14.6307L13.7736 28.5L14.6307 26.8332H16.3694L17.2266 28.5L16.3694 30.1666Z" fill="white" stroke="white" stroke-width="0.5"/>
<path d="M28.5925 19.7967C31.0131 19.8048 32.9822 17.8491 32.9904 15.4285C32.9916 15.06 32.9464 14.6931 32.8557 14.3359C32.8069 14.1394 32.608 14.0199 32.4116 14.0687C32.347 14.0849 32.2882 14.1182 32.2412 14.1651L29.9597 16.445L28.1495 15.8418L27.5458 14.0321L29.8273 11.7502C29.9704 11.607 29.9702 11.375 29.827 11.2319C29.7798 11.1847 29.7204 11.1512 29.6554 11.1352C27.3079 10.5408 24.9231 11.9617 24.3286 14.309C24.2383 14.6652 24.1932 15.0312 24.1944 15.3986C24.1953 15.6872 24.225 15.9749 24.2835 16.2574L16.2568 24.2837C15.9743 24.2254 15.6866 24.1957 15.3982 24.1946C12.9691 24.1946 11 26.1636 11 28.5926C11 31.0215 12.9691 32.9905 15.3982 32.9905C17.8271 32.9905 19.7962 31.0215 19.7962 28.5926C19.7953 28.3041 19.7655 28.0164 19.7071 27.7339L21.6287 25.8123L22.4691 26.6527C22.6124 26.7958 22.8443 26.7958 22.9875 26.6527L23.1707 26.4694C23.3314 26.3097 23.5912 26.3097 23.7519 26.4694C23.9125 26.6295 23.9128 26.8894 23.7527 27.05C23.7525 27.0501 23.7522 27.0504 23.7519 27.0507L23.5687 27.2339C23.4256 27.377 23.4256 27.609 23.5687 27.7521L27.9408 32.1241C29.0908 33.2845 30.9637 33.293 32.1242 32.1431C33.2845 30.9932 33.293 29.1202 32.143 27.9599C32.1369 27.9535 32.1305 27.9472 32.1242 27.9409L27.7521 23.5691C27.609 23.426 27.377 23.426 27.2339 23.5691L27.0507 23.7522C26.8898 23.9121 26.6302 23.9121 26.4693 23.7522C26.3089 23.5921 26.3084 23.3322 26.4685 23.1718C26.4688 23.1715 26.4691 23.1713 26.4693 23.171L26.6526 22.9877C26.7957 22.8446 26.7957 22.6126 26.6526 22.4695L25.8122 21.6291L27.7338 19.7076C28.0164 19.7659 28.3041 19.7958 28.5925 19.7967ZM30.0325 32.2577C29.7662 32.2572 29.5022 32.2091 29.253 32.1155L32.1154 29.253C32.5474 30.402 31.9662 31.6835 30.8171 32.1155C30.5664 32.2097 30.3006 32.258 30.0325 32.2577ZM25.8804 22.7323C25.4745 23.2164 25.5381 23.938 26.0223 24.3437C26.4477 24.7003 27.0679 24.7 27.4929 24.3427L31.606 28.4592C31.6506 28.504 31.6924 28.5512 31.7328 28.5991L28.5991 31.7327C28.551 31.6924 28.5038 31.6507 28.459 31.6059L24.3428 27.4895C24.7487 27.0054 24.6851 26.2838 24.2009 25.8781C23.7754 25.5214 23.1552 25.5218 22.7301 25.879L22.1438 25.2926L25.2939 22.1473L25.8804 22.7323ZM27.3604 19.0462L19.046 27.3586C18.9548 27.4497 18.9181 27.5819 18.9492 27.7069C19.452 29.6815 18.2588 31.6899 16.284 32.1925C14.3093 32.6953 12.3009 31.5022 11.798 29.5274C11.2954 27.5528 12.4886 25.5444 14.4634 25.0416C15.0608 24.8896 15.6866 24.8896 16.284 25.0416C16.409 25.0722 16.5409 25.0356 16.6323 24.945L24.9447 16.6324C25.0357 16.5413 25.0724 16.4091 25.041 16.2843C24.5417 14.3327 25.7189 12.3459 27.6705 11.8464C28.0393 11.7522 28.4208 11.716 28.8007 11.7397L26.8673 13.6737C26.7692 13.7717 26.7348 13.9169 26.7787 14.0485L27.5116 16.2476C27.5482 16.3569 27.6342 16.4429 27.7436 16.4792L29.9428 17.2122C30.0743 17.2561 30.2195 17.2219 30.3176 17.1239L32.251 15.1906C32.2554 15.2605 32.2576 15.3297 32.2576 15.3986C32.2679 17.4125 30.6437 19.0533 28.6299 19.0637C28.3185 19.0652 28.0082 19.0269 27.7067 18.9497C27.5817 18.9185 27.4495 18.955 27.3584 19.046H27.3604V19.0462Z" fill="white" stroke="white" stroke-width="0.5"/>
<path d="M30 29.5044L29.5044 30L26 26.4956L26.4955 26L30 29.5044Z" fill="white" stroke="white" stroke-width="0.5"/>
</g>
<defs>
<clipPath id="clip0_2976_3047">
<rect width="24" height="24" fill="white" transform="translate(10 10)"/>
</clipPath>
</defs>
</svg>
