<svg width="45" height="45" viewBox="0 0 45 45" fill="none" xmlns="http://www.w3.org/2000/svg">
<rect width="45" height="45" rx="22.5" fill="#FFC728"/>
<path d="M17 25L17 19" stroke="white" stroke-width="1.5" stroke-linecap="round" stroke-linejoin="round"/>
<path d="M30.8333 19H28.2308C26.4465 19 25 20.3431 25 22C25 23.6569 26.4465 25 28.2308 25H30.8333C30.9167 25 30.9583 25 30.9935 24.9979C31.5328 24.965 31.9623 24.5662 31.9977 24.0654C32 24.0327 32 23.994 32 23.9167V20.0833C32 20.006 32 19.9673 31.9977 19.9346C31.9623 19.4338 31.5328 19.035 30.9935 19.0021C30.9583 19 30.9167 19 30.8333 19Z" stroke="white" stroke-width="1.5"/>
<path d="M30.965 19C30.8873 17.1277 30.6366 15.9797 29.8284 15.1716C28.6569 14 26.7712 14 23 14L20 14C16.2288 14 14.3431 14 13.1716 15.1716C12 16.3431 12 18.2288 12 22C12 25.7712 12 27.6569 13.1716 28.8284C14.3431 30 16.2288 30 20 30H23C26.7712 30 28.6569 30 29.8284 28.8284C30.6366 28.0203 30.8873 26.8723 30.965 25" stroke="white" stroke-width="1.5"/>
<path d="M27.9922 22H28.0012" stroke="white" stroke-width="2" stroke-linecap="round" stroke-linejoin="round"/>
</svg>
