<svg width="42" height="42" viewBox="0 0 42 42" fill="none" xmlns="http://www.w3.org/2000/svg">
<path d="M27.1113 6.03024C22.5966 5.93995 17.9399 8.52531 16.6626 14.3589C11.4637 12.5844 6.7696 16.0843 7.2572 21.6725C4.53705 22.7721 2.625 25.4295 2.625 28.5529C2.625 32.6657 5.93601 35.9767 10.0488 35.9767H19.0671C19.0646 33.4773 19.0594 28.4621 19.0594 27.5121L16.9445 28.2786C15.4103 28.9398 14.2771 27.0077 15.591 25.8048L19.5926 21.916C20.5066 21.002 21.5982 21.1068 22.4074 21.916L26.4089 25.8048C27.7229 27.0077 26.5897 28.9398 25.0554 28.2786L22.9406 27.5121V35.9767H31.9512C36.064 35.9767 39.375 32.6657 39.375 28.5529C39.375 25.5258 37.5783 22.9381 34.9915 21.7802C40.0038 12.0086 33.7098 6.16199 27.1113 6.03024Z" fill="#303473"/>
<path d="M27.1115 6.02866C26.8601 6.02369 26.584 6.03233 26.3322 6.04349C20.5659 15.1311 29.4775 21.7781 34.9917 21.7781C40.004 12.0065 33.71 6.16041 27.1115 6.02866Z" fill="#D9D9D9"/>
</svg>
